<svg width="14" height="14" viewBox="0 0 14 14" fill="none" xmlns="http://www.w3.org/2000/svg">
<path d="M5.83335 11.0834C5.69706 11.0836 5.56497 11.0362 5.46002 10.9492C5.40095 10.9002 5.35213 10.8401 5.31634 10.7722C5.28055 10.7044 5.2585 10.6301 5.25146 10.5537C5.24441 10.4773 5.25251 10.4003 5.27529 10.327C5.29806 10.2537 5.33507 10.1857 5.38419 10.1267L7.99752 7.00005L5.47752 3.86755C5.42906 3.80788 5.39288 3.73922 5.37104 3.66552C5.34921 3.59183 5.34215 3.51454 5.35029 3.43811C5.35842 3.36167 5.38157 3.2876 5.41842 3.22015C5.45528 3.15269 5.5051 3.09318 5.56502 3.04505C5.62537 2.99194 5.69605 2.95189 5.77262 2.92739C5.84919 2.9029 5.93 2.8945 6.00997 2.90271C6.08994 2.91093 6.16735 2.93559 6.23734 2.97514C6.30733 3.01469 6.36839 3.06828 6.41669 3.13255L9.23419 6.63255C9.31998 6.73692 9.36689 6.86785 9.36689 7.00296C9.36689 7.13808 9.31998 7.269 9.23419 7.37338L6.31752 10.8734C6.259 10.944 6.18466 10.9998 6.10054 11.0363C6.01642 11.0728 5.92488 11.0889 5.83335 11.0834Z" fill="#3F6CF4"/>
</svg>